<svg xmlns="http://www.w3.org/2000/svg" xmlns:xlink="http://www.w3.org/1999/xlink" width="784" height="548" version="1.1" viewBox="0 0 196 137"><title>Group</title><desc>Created with Sketch.</desc><defs><linearGradient id="linearGradient-1" x1="2.041%" x2="60.051%" y1="54.999%" y2="56.543%"><stop offset="0%" stop-color="#FFF" stop-opacity="0"/><stop offset="100%" stop-color="#FFF"/></linearGradient><linearGradient id="linearGradient-2" x1="0%" x2="66.042%" y1="50%" y2="61.425%"><stop offset="0%" stop-color="#FD76FD" stop-opacity="0"/><stop offset="100%" stop-color="#FF51FF"/></linearGradient><linearGradient id="linearGradient-3" x1="1.02%" x2="55.47%" y1="63.709%" y2="50%"><stop offset="0%" stop-color="#5300FF" stop-opacity="0"/><stop offset="100%" stop-color="#9D6EFF"/></linearGradient><linearGradient id="linearGradient-4" x1="0%" x2="57.723%" y1="54.46%" y2="61.38%"><stop offset="0%" stop-color="#AE60D6" stop-opacity="0"/><stop offset="100%" stop-color="#AB38E6"/></linearGradient></defs><g id="Page-2" fill="none" fill-rule="evenodd" stroke="none" stroke-width="1"><g id="Group"><path id="Combined-Shape" fill="#0B76FF" d="M98.0025399,114.129052 L138.823779,114.129052 L98.0152146,43.0657511 L98.010431,43.0740812 L98.0152146,0 L178,137 L98,137 L98.0025399,114.129052 Z"/><path id="Combined-Shape" fill="#24C1FF" d="M18.0025399,114.129052 L58.8237786,114.129052 L18.0152146,43.0657511 L18.010431,43.0740812 L18.0152146,0 L98,137 L18,137 L18.0025399,114.129052 Z" transform="translate(58.000000, 68.500000) scale(-1, 1) translate(-58.000000, -68.500000)"/><polygon id="Triangle-5" fill="#39FFF2" points="98 61 98 106.949 73 107"/><polygon id="Triangle-5" fill="#00E2C2" points="123 61 123 106.949 98 107" transform="translate(110.500000, 84.000000) scale(-1, 1) translate(-110.500000, -84.000000)"/><polygon id="Rectangle-5" fill="url(#linearGradient-1)" points="0 46 98 88.36 98 93 0 68.263"/><polygon id="Rectangle-5" fill="url(#linearGradient-2)" points="98 30 196 88.361 196 90 98 48.907" transform="translate(147.000000, 60.000000) scale(-1, 1) translate(-147.000000, -60.000000)"/><polygon id="Rectangle-5" fill="url(#linearGradient-3)" points="98 74.312 196 67 196 68.624 98 93" transform="translate(147.000000, 80.000000) scale(-1, -1) translate(-147.000000, -80.000000)"/><polygon id="Rectangle-5" fill="url(#linearGradient-4)" points="98 49 196 89.519 196 92 98 66.365" transform="translate(147.000000, 70.500000) scale(-1, 1) translate(-147.000000, -70.500000)"/></g></g></svg>